<?xml version="1.0" encoding="UTF-8"?>
<svg version="1.1" xmlns="http://www.w3.org/2000/svg" width="512" height="512">
<path d="M0 0 C0.81082031 0.63421875 1.62164062 1.2684375 2.45703125 1.921875 C3.09253906 2.39109375 3.72804688 2.8603125 4.3828125 3.34375 C10.12317912 7.83047334 14.46681145 13.87773254 18.45703125 19.921875 C18.45703125 20.581875 18.45703125 21.241875 18.45703125 21.921875 C19.11703125 21.921875 19.77703125 21.921875 20.45703125 21.921875 C30.87553954 35.60157841 36.09593752 54.06836363 40.86987305 70.31591797 C46.97868902 91.02608079 55.19318549 111.07644743 64.0703125 130.7421875 C76.56318855 158.51799956 88.49910441 193.0160741 77.13671875 223.2265625 C74.36954017 229.65847453 70.64199428 235.33484313 66.45703125 240.921875 C65.82925781 241.76363281 65.20148438 242.60539062 64.5546875 243.47265625 C53.53694574 256.95949025 36.14973584 265.32065266 19.08203125 267.546875 C-13.85514488 270.63298179 -40.79172104 254.30669355 -65.41796875 234.234375 C-67.13082763 232.80227043 -68.83927953 231.36487607 -70.54296875 229.921875 C-91.31422292 212.46287746 -112.99172842 199.07843055 -140.54296875 195.921875 C-141.55810547 195.79703735 -141.55810547 195.79703735 -142.59375 195.66967773 C-153.60542072 194.47725493 -164.73082541 194.59623261 -175.79492188 194.44506836 C-203.27964664 194.0528991 -225.67391775 189.29678586 -245.54296875 168.921875 C-250.77239578 163.12007287 -255.29836283 157.04615207 -258.54296875 149.921875 C-258.93613281 149.09558594 -259.32929688 148.26929688 -259.734375 147.41796875 C-265.47551712 132.71504382 -264.96348195 112.50787663 -259.01171875 97.9921875 C-258.52703125 96.97898437 -258.04234375 95.96578125 -257.54296875 94.921875 C-257.12015625 93.97054687 -256.69734375 93.01921875 -256.26171875 92.0390625 C-246.4939458 72.10599095 -226.92977951 56.84211514 -207.54296875 46.921875 C-206.50011719 46.3753125 -205.45726562 45.82875 -204.3828125 45.265625 C-194.61828986 40.22137405 -184.59656929 35.78816195 -174.54541016 31.34985352 C-156.3660529 23.32074311 -138.56221002 14.76896369 -121.35546875 4.796875 C-108.87850631 -2.39078281 -96.21550188 -8.52859559 -82.54296875 -13.078125 C-81.35058594 -13.49320313 -80.15820312 -13.90828125 -78.9296875 -14.3359375 C-51.80526926 -22.52768366 -22.36085164 -17.01855947 0 0 Z " fill="#000000" transform="translate(279.54296875,220.078125)"/>
<path d="M0 0 C12.00829284 10.57873417 16.22644154 22.84020383 17.22265625 38.5 C17.40317945 45.78371855 16.78226967 52.74690155 15.6875 59.9375 C15.56995361 60.71818848 15.45240723 61.49887695 15.33129883 62.30322266 C14.46234476 67.50362123 12.98414284 72.11467351 11 77 C11.66 77.33 12.32 77.66 13 78 C12.01 78 11.02 78 10 78 C9.90589844 78.8353125 9.81179688 79.670625 9.71484375 80.53125 C8.8922523 84.5228413 7.39521811 87.89543384 5.5625 91.5 C5.20905518 92.19706055 4.85561035 92.89412109 4.49145508 93.61230469 C-8.6126959 118.71080884 -30.33599921 139.15079746 -57 149 C-57.8146875 149.30808594 -58.629375 149.61617187 -59.46875 149.93359375 C-74.16466428 155.19291924 -92.82154281 154.92472819 -107 148.4375 C-119.61163042 141.80664277 -128.79241475 131.23262581 -133.25 117.75 C-139.04688378 95.925079 -132.75291095 75.12740025 -122 56 C-121.50628906 55.08992188 -121.01257813 54.17984375 -120.50390625 53.2421875 C-117.62770818 48.17421244 -114.25962257 43.51625328 -110.75 38.875 C-110.31316895 38.29339111 -109.87633789 37.71178223 -109.42626953 37.11254883 C-108.33403384 35.70165582 -107.1722569 34.34514371 -106 33 C-105.34 33 -104.68 33 -104 33 C-103.773125 32.443125 -103.54625 31.88625 -103.3125 31.3125 C-101.62449964 28.33840412 -99.53323483 26.27991135 -97 24 C-96.34 24 -95.68 24 -95 24 C-94.505 22.515 -94.505 22.515 -94 21 C-92.11763098 19.33368906 -90.25621747 17.81529217 -88.25 16.3125 C-87.66653809 15.87188232 -87.08307617 15.43126465 -86.48193359 14.97729492 C-63.32240566 -2.25083094 -26.81796813 -20.18880747 0 0 Z " fill="#000000" transform="translate(428,79)"/>
<path d="M0 0 C9.70120094 7.49638255 16.1439324 16.73217925 19.4375 28.4375 C19.65172607 29.18878174 19.86595215 29.94006348 20.08666992 30.71411133 C21.59902829 36.19515358 22.62470973 41.42429293 22.75 47.125 C22.78867187 48.14207031 22.82734375 49.15914062 22.8671875 50.20703125 C23.25595671 69.10553434 20.51518887 88.16420132 11.75 105.125 C11.10611328 106.40890625 11.10611328 106.40890625 10.44921875 107.71875 C2.4286117 123.1113975 -8.52477878 135.81947826 -23.25 145.125 C-24.3225 145.846875 -25.395 146.56875 -26.5 147.3125 C-39.12890307 154.09686421 -54.30787793 155.25777869 -68.0625 151.6875 C-81.28861253 146.98635362 -90.13808322 137.3216925 -96.5 125.1875 C-105.98507574 105.23090064 -105.26644057 81.9261115 -98.375 61.17578125 C-87.96555344 32.94738624 -68.24414606 11.39016858 -41.35546875 -1.8046875 C-28.91279385 -7.49741458 -11.74095295 -6.7736267 0 0 Z " fill="#000000" transform="translate(268.25,33.875)"/>
<path d="M0 0 C9.35742343 9.57289042 12.86171246 21.10030365 12.71484375 34.26953125 C10.87188303 57.76079118 -1.35308469 77.48846514 -16.5625 94.8046875 C-17.08714844 95.413125 -17.61179687 96.0215625 -18.15234375 96.6484375 C-25.95227588 105.06363145 -36.5971932 112.1907477 -46.5625 117.8046875 C-47.13226563 118.13597656 -47.70203125 118.46726562 -48.2890625 118.80859375 C-65.21437823 127.99147782 -85.67982855 131.64109025 -104.4140625 126.85546875 C-116.3332843 122.87746545 -125.76001979 115.54994467 -131.828125 104.5 C-138.56635182 89.96755559 -137.79789725 75.79548335 -132.5625 60.8046875 C-122.23145627 35.55781731 -99.42772196 15.10508444 -75.5625 2.8046875 C-74.6859375 2.32386719 -73.809375 1.84304687 -72.90625 1.34765625 C-51.50587973 -10.01409947 -20.30238968 -17.3932058 0 0 Z " fill="#000000" transform="translate(482.5625,230.1953125)"/>
<path d="M0 0 C12.56604046 10.14506019 18.72960556 26.20170701 20.8125 41.8515625 C23.06464022 69.37772077 18.79095642 97.14134016 0.75390625 119.09375 C-0.11234375 119.96 -0.97859375 120.82625 -1.87109375 121.71875 C-2.53109375 121.71875 -3.19109375 121.71875 -3.87109375 121.71875 C-4.20109375 122.70875 -4.53109375 123.69875 -4.87109375 124.71875 C-14.56489796 133.65548291 -25.15953363 138.68139216 -38.578125 138.15234375 C-50.00792666 136.64735207 -58.37377304 131.20770031 -65.87109375 122.71875 C-65.87109375 122.05875 -65.87109375 121.39875 -65.87109375 120.71875 C-66.53109375 120.71875 -67.19109375 120.71875 -67.87109375 120.71875 C-81.17851595 104.13325312 -81.22230391 80.75981696 -79.59765625 60.6328125 C-77.00469403 39.2531051 -66.45689974 17.59967029 -50.87109375 2.71875 C-35.53699149 -9.29507557 -16.28333017 -11.55408471 0 0 Z " fill="#000000" transform="translate(125.87109375,101.28125)"/>
<path d="M0 0 C2 1 2 1 2 1 Z " fill="#010000" transform="translate(398,236)"/>
<path d="M0 0 C2 1 2 1 2 1 Z " fill="#000100" transform="translate(136,235)"/>
<path d="M0 0 C2 1 2 1 2 1 Z " fill="#020000" transform="translate(265,210)"/>
<path d="" fill="#000000" transform="translate(0,0)"/>
<path d="M0 0 C2 1 2 1 2 1 Z " fill="#010100" transform="translate(215,188)"/>
<path d="" fill="#010100" transform="translate(0,0)"/>
<path d="" fill="#000101" transform="translate(0,0)"/>
<path d="" fill="#000201" transform="translate(0,0)"/>
<path d="" fill="#020101" transform="translate(0,0)"/>
<path d="" fill="#040303" transform="translate(0,0)"/>
<path d="" fill="#000100" transform="translate(0,0)"/>
<path d="" fill="#000100" transform="translate(0,0)"/>
<path d="" fill="#000000" transform="translate(0,0)"/>
<path d="" fill="#000000" transform="translate(0,0)"/>
<path d="" fill="#030303" transform="translate(0,0)"/>
<path d="" fill="#100E10" transform="translate(0,0)"/>
<path d="" fill="#0F110E" transform="translate(0,0)"/>
<path d="" fill="#000000" transform="translate(0,0)"/>
<path d="" fill="#010100" transform="translate(0,0)"/>
<path d="" fill="#010000" transform="translate(0,0)"/>
<path d="" fill="#000000" transform="translate(0,0)"/>
<path d="" fill="#020202" transform="translate(0,0)"/>
<path d="" fill="#010200" transform="translate(0,0)"/>
<path d="" fill="#000000" transform="translate(0,0)"/>
<path d="" fill="#010100" transform="translate(0,0)"/>
<path d="" fill="#000000" transform="translate(0,0)"/>
<path d="" fill="#0A0A0E" transform="translate(0,0)"/>
<path d="" fill="#0A0606" transform="translate(0,0)"/>
<path d="" fill="#000000" transform="translate(0,0)"/>
<path d="" fill="#000000" transform="translate(0,0)"/>
<path d="" fill="#000000" transform="translate(0,0)"/>
<path d="" fill="#000100" transform="translate(0,0)"/>
<path d="" fill="#000000" transform="translate(0,0)"/>
<path d="" fill="#000000" transform="translate(0,0)"/>
<path d="" fill="#000001" transform="translate(0,0)"/>
<path d="" fill="#030304" transform="translate(0,0)"/>
<path d="" fill="#010001" transform="translate(0,0)"/>
<path d="" fill="#000000" transform="translate(0,0)"/>
<path d="" fill="#000000" transform="translate(0,0)"/>
<path d="" fill="#010100" transform="translate(0,0)"/>
<path d="" fill="#000000" transform="translate(0,0)"/>
<path d="" fill="#000000" transform="translate(0,0)"/>
<path d="" fill="#000000" transform="translate(0,0)"/>
<path d="" fill="#000001" transform="translate(0,0)"/>
<path d="" fill="#010101" transform="translate(0,0)"/>
<path d="" fill="#070A06" transform="translate(0,0)"/>
<path d="" fill="#080606" transform="translate(0,0)"/>
</svg>
